<svg xmlns="http://www.w3.org/2000/svg" xmlns:xlink="http://www.w3.org/1999/xlink" width="500" zoomAndPan="magnify" viewBox="0 0 375 374.999991" height="500" preserveAspectRatio="xMidYMid meet" version="1.0"><defs><g/><clipPath id="639590df8b"><path d="M 113 45 L 313.1875 45 L 313.1875 235.792969 L 113 235.792969 Z M 113 45 " clip-rule="nonzero"/></clipPath><clipPath id="24f3d2da28"><path d="M 61.9375 37.5 L 250 37.5 L 250 152 L 61.9375 152 Z M 61.9375 37.5 " clip-rule="nonzero"/></clipPath></defs><g clip-path="url(#639590df8b)"><path fill="#efefef" d="M 113.246094 235.792969 L 113.246094 230.402344 L 120.683594 230.402344 C 129.082031 230.402344 135.027344 227.71875 138.527344 222.382812 C 140.671875 219.195312 141.722656 211.960938 141.722656 200.796875 L 141.722656 160.382812 L 169.890625 132.277344 L 169.890625 221.242188 C 182.292969 223.976562 192.632812 225.316406 201.027344 225.316406 C 223.609375 225.316406 242.34375 217.390625 257.273438 201.5 C 272.164062 185.648438 279.617188 164.113281 279.617188 136.9375 C 279.617188 109.574219 272.164062 87.988281 257.273438 72.242188 C 252.65625 67.359375 247.761719 63.28125 242.398438 59.949219 L 256.753906 45.613281 C 258.484375 46.222656 260.148438 46.886719 261.71875 47.5625 C 277.207031 54.292969 289.648438 65.511719 299.042969 81.21875 C 308.492188 96.910156 313.1875 115.058594 313.1875 135.597656 C 313.1875 163.210938 304.792969 186.246094 288 204.777344 C 269.171875 225.476562 240.496094 235.792969 201.917969 235.792969 Z M 169.890625 123 C 115.148438 177.617188 169.890625 123 169.890625 123 Z M 169.890625 123 " fill-opacity="1" fill-rule="nonzero"/></g><g clip-path="url(#24f3d2da28)"><path fill="#efefef" d="M 169.890625 123 L 169.890625 52.808594 C 181.082031 49.964844 191.074219 48.574219 199.816406 48.574219 C 213.46875 48.574219 225.660156 51.242188 236.421875 56.617188 L 249.675781 43.394531 C 235.304688 39.453125 216.742188 37.5 194.027344 37.5 L 159.417969 37.5 L 159.417969 133.460938 Z M 152.207031 37.5 L 117.582031 37.5 C 94.871094 37.5 76.320312 39.453125 61.9375 43.394531 L 75.1875 56.617188 C 85.953125 51.242188 98.15625 48.574219 111.796875 48.574219 C 120.539062 48.574219 130.53125 49.964844 141.722656 52.808594 L 141.722656 151.105469 L 152.207031 140.640625 Z M 152.207031 37.5 " fill-opacity="1" fill-rule="evenodd"/></g><path fill="#efefef" d="M 134.507812 58.488281 C 130.875 57.746094 127.375 57.160156 124.023438 56.738281 L 124.023438 168.761719 L 134.507812 158.300781 Z M 134.507812 58.488281 " fill-opacity="1" fill-rule="evenodd"/><path fill="#efefef" d="M 177.101562 58.488281 L 177.101562 115.800781 L 187.589844 105.339844 L 187.589844 56.738281 C 184.234375 57.160156 180.75 57.746094 177.101562 58.488281 Z M 177.101562 58.488281 " fill-opacity="1" fill-rule="evenodd"/><g fill="#ffffff" fill-opacity="1"><g transform="translate(4.900367, 311.789565)"><g><path d="M 5.671875 -4.328125 L 5.671875 -32.90625 L 2.265625 -33.40625 L 2.265625 -37.34375 L 10.15625 -37.34375 C 10.875 -37.34375 11.546875 -37.359375 12.171875 -37.390625 C 12.796875 -37.421875 13.351562 -37.453125 13.84375 -37.484375 C 15.875 -37.617188 17.453125 -37.6875 18.578125 -37.6875 C 24.679688 -37.6875 29.328125 -36.160156 32.515625 -33.109375 C 35.703125 -30.054688 37.296875 -25.601562 37.296875 -19.75 C 37.296875 -15.71875 36.5 -12.195312 34.90625 -9.1875 C 33.3125 -6.1875 31.0625 -3.863281 28.15625 -2.21875 C 25.25 -0.570312 21.84375 0.25 17.9375 0.25 C 17.082031 0.25 15.832031 0.210938 14.1875 0.140625 C 12.90625 0.046875 11.609375 0 10.296875 0 L 2.171875 0 L 2.171875 -3.34375 Z M 14.28125 -4.28125 C 15.101562 -3.757812 16.335938 -3.5 17.984375 -3.5 C 18.835938 -3.5 19.492188 -3.53125 19.953125 -3.59375 C 21.722656 -3.726562 23.234375 -4.5 24.484375 -5.90625 C 25.734375 -7.320312 26.675781 -9.097656 27.3125 -11.234375 C 27.957031 -13.367188 28.28125 -15.617188 28.28125 -17.984375 C 28.28125 -28.554688 24.863281 -33.84375 18.03125 -33.84375 C 16.351562 -33.84375 15.101562 -33.613281 14.28125 -33.15625 Z M 14.28125 -4.28125 "/></g></g></g><g fill="#ffffff" fill-opacity="1"><g transform="translate(48.105929, 311.789565)"><g><path d="M 5.328125 -3.890625 L 5.328125 -19.703125 L 2.0625 -22.015625 L 2.0625 -25.03125 L 10.984375 -27.6875 L 12.703125 -27.25 L 12.703125 -22.5625 C 12.941406 -23.445312 13.445312 -24.285156 14.21875 -25.078125 C 14.988281 -25.867188 15.863281 -26.5 16.84375 -26.96875 C 17.832031 -27.445312 18.753906 -27.6875 19.609375 -27.6875 C 20.953125 -27.6875 21.820312 -27.585938 22.21875 -27.390625 L 22.21875 -19.8125 C 21.851562 -20.164062 21.234375 -20.441406 20.359375 -20.640625 C 19.492188 -20.835938 18.75 -20.9375 18.125 -20.9375 C 17.207031 -20.9375 16.347656 -20.84375 15.546875 -20.65625 C 14.742188 -20.476562 14.175781 -20.273438 13.84375 -20.046875 L 13.84375 -4.09375 L 19.453125 -3.25 L 19.453125 0 L 2.359375 0 L 2.359375 -3.25 Z M 5.328125 -3.890625 "/></g></g></g><g fill="#ffffff" fill-opacity="1"><g transform="translate(75.694454, 311.789565)"><g><path d="M 16.5 -27.6875 C 20.144531 -27.6875 22.925781 -26.773438 24.84375 -24.953125 C 26.769531 -23.128906 27.734375 -20.476562 27.734375 -17 C 27.734375 -15.550781 27.617188 -14.140625 27.390625 -12.765625 L 10.640625 -12.765625 C 10.867188 -9.898438 11.609375 -7.742188 12.859375 -6.296875 C 14.109375 -4.859375 15.914062 -4.140625 18.28125 -4.140625 C 20.90625 -4.140625 23.445312 -4.679688 25.90625 -5.765625 L 27.1875 -2.765625 C 25.90625 -1.679688 24.1875 -0.832031 22.03125 -0.21875 C 19.882812 0.382812 17.828125 0.6875 15.859375 0.6875 C 11.359375 0.6875 7.882812 -0.484375 5.4375 -2.828125 C 3 -5.179688 1.78125 -8.492188 1.78125 -12.765625 C 1.78125 -15.648438 2.398438 -18.222656 3.640625 -20.484375 C 4.890625 -22.753906 6.628906 -24.519531 8.859375 -25.78125 C 11.097656 -27.050781 13.644531 -27.6875 16.5 -27.6875 Z M 15.765625 -24.34375 C 12.773438 -24.34375 11.066406 -21.765625 10.640625 -16.609375 L 19.453125 -16.609375 C 19.585938 -17.785156 19.65625 -18.785156 19.65625 -19.609375 C 19.65625 -22.765625 18.359375 -24.34375 15.765625 -24.34375 Z M 15.765625 -24.34375 "/></g></g></g><g fill="#ffffff" fill-opacity="1"><g transform="translate(109.835239, 311.789565)"><g><path d="M 15.171875 -27.6875 C 18.921875 -27.6875 21.695312 -26.90625 23.5 -25.34375 C 25.300781 -23.78125 26.203125 -21.257812 26.203125 -17.78125 L 26.203125 -3.25 L 29.359375 -3.25 L 29.359375 -0.6875 C 28.703125 -0.226562 27.789062 0.113281 26.625 0.34375 C 25.457031 0.570312 24.300781 0.6875 23.15625 0.6875 C 21.9375 0.6875 20.929688 0.453125 20.140625 -0.015625 C 19.359375 -0.492188 18.914062 -1.175781 18.8125 -2.0625 C 16.875 -0.226562 14.546875 0.6875 11.828125 0.6875 C 8.804688 0.6875 6.359375 0.00390625 4.484375 -1.359375 C 2.609375 -2.722656 1.671875 -4.617188 1.671875 -7.046875 C 1.671875 -9.210938 2.425781 -11.035156 3.9375 -12.515625 C 5.445312 -13.992188 7.425781 -15.09375 9.875 -15.8125 C 12.320312 -16.53125 14.925781 -16.890625 17.6875 -16.890625 L 17.6875 -17.1875 C 17.65625 -19.351562 17.269531 -20.878906 16.53125 -21.765625 C 15.789062 -22.660156 14.46875 -23.109375 12.5625 -23.109375 C 11.1875 -23.109375 9.734375 -22.910156 8.203125 -22.515625 C 6.671875 -22.117188 5.476562 -21.625 4.625 -21.03125 L 3 -24.734375 C 4.1875 -25.679688 5.953125 -26.410156 8.296875 -26.921875 C 10.648438 -27.429688 12.941406 -27.6875 15.171875 -27.6875 Z M 17.6875 -13.203125 C 15.550781 -13.203125 13.785156 -12.773438 12.390625 -11.921875 C 10.992188 -11.066406 10.296875 -9.785156 10.296875 -8.078125 C 10.296875 -6.734375 10.628906 -5.707031 11.296875 -5 C 11.972656 -4.289062 12.96875 -3.9375 14.28125 -3.9375 C 15.726562 -3.9375 16.863281 -4.28125 17.6875 -4.96875 Z M 17.6875 -13.203125 "/></g></g></g><g fill="#ffffff" fill-opacity="1"><g transform="translate(143.680426, 311.789565)"><g><path d="M 5.328125 -3.890625 L 5.328125 -19.703125 L 2.0625 -22.015625 L 2.0625 -25.03125 L 11.03125 -27.6875 L 12.8125 -27.25 L 12.8125 -23.640625 C 13.863281 -24.796875 15.207031 -25.757812 16.84375 -26.53125 C 18.488281 -27.300781 20.066406 -27.703125 21.578125 -27.734375 C 25.816406 -27.960938 28.539062 -26.695312 29.75 -23.9375 C 31 -25.15625 32.382812 -26.082031 33.90625 -26.71875 C 35.4375 -27.363281 37.023438 -27.6875 38.671875 -27.6875 C 41.828125 -27.6875 44.117188 -26.691406 45.546875 -24.703125 C 46.972656 -22.710938 47.6875 -19.878906 47.6875 -16.203125 L 47.6875 -3.9375 L 51.046875 -3.25 L 51.046875 0 L 36.359375 0 L 36.359375 -3.25 L 39.171875 -3.9375 L 39.171875 -15.125 C 39.171875 -16.96875 39.046875 -18.378906 38.796875 -19.359375 C 38.546875 -20.347656 38.066406 -21.070312 37.359375 -21.53125 C 36.660156 -21.988281 35.601562 -22.21875 34.1875 -22.21875 C 33.664062 -22.21875 33.082031 -22.101562 32.4375 -21.875 C 31.800781 -21.644531 31.21875 -21.347656 30.6875 -20.984375 C 30.851562 -20.097656 30.9375 -18.753906 30.9375 -16.953125 L 30.9375 -3.9375 L 34.34375 -3.25 L 34.34375 0 L 19.015625 0 L 19.015625 -3.25 L 22.421875 -3.984375 L 22.421875 -15.328125 C 22.421875 -17.722656 22.109375 -19.46875 21.484375 -20.5625 C 20.859375 -21.664062 19.707031 -22.21875 18.03125 -22.21875 C 17.175781 -22.21875 16.351562 -22.101562 15.5625 -21.875 C 14.78125 -21.644531 14.207031 -21.347656 13.84375 -20.984375 L 13.84375 -3.9375 L 17 -3.25 L 17 0 L 2.359375 0 L 2.359375 -3.25 Z M 5.328125 -3.890625 "/></g></g></g><g fill="#ffffff" fill-opacity="1"><g transform="translate(200.187563, 311.789565)"><g><path d="M 5.671875 -4.390625 L 5.671875 -32.859375 L 1.421875 -33.40625 L 1.421875 -37.34375 L 18.421875 -37.34375 L 18.421875 -33.40625 L 14.28125 -32.859375 L 14.28125 -21.234375 L 28.578125 -21.234375 L 28.578125 -32.953125 L 24.53125 -33.40625 L 24.53125 -37.34375 L 41.390625 -37.34375 L 41.390625 -33.40625 L 37.140625 -32.90625 L 37.140625 -4.328125 L 41.625 -3.296875 L 41.625 0 L 24.1875 0 L 24.1875 -3.296875 L 28.578125 -4.328125 L 28.578125 -16.609375 L 14.28125 -16.609375 L 14.28125 -4.390625 L 18.671875 -3.34375 L 18.671875 0 L 1.578125 0 L 1.578125 -3.34375 Z M 5.671875 -4.390625 "/></g></g></g><g fill="#ffffff" fill-opacity="1"><g transform="translate(247.334345, 311.789565)"><g><path d="M 16.546875 -27.734375 C 21.046875 -27.734375 24.476562 -26.566406 26.84375 -24.234375 C 29.207031 -21.898438 30.390625 -18.566406 30.390625 -14.234375 C 30.390625 -11.242188 29.78125 -8.628906 28.5625 -6.390625 C 27.351562 -4.160156 25.65625 -2.4375 23.46875 -1.21875 C 21.289062 -0.0078125 18.753906 0.59375 15.859375 0.59375 C 11.328125 0.59375 7.835938 -0.644531 5.390625 -3.125 C 2.941406 -5.601562 1.753906 -9.0625 1.828125 -13.5 C 1.921875 -17.894531 3.28125 -21.332031 5.90625 -23.8125 C 8.539062 -26.300781 12.085938 -27.609375 16.546875 -27.734375 Z M 16.359375 -24.1875 C 14.390625 -24.1875 12.984375 -23.273438 12.140625 -21.453125 C 11.304688 -19.628906 10.890625 -17.207031 10.890625 -14.1875 C 10.890625 -11.164062 11.296875 -8.535156 12.109375 -6.296875 C 12.929688 -4.066406 14.28125 -2.953125 16.15625 -2.953125 C 18.164062 -2.953125 19.535156 -3.953125 20.265625 -5.953125 C 21.003906 -7.960938 21.375 -10.578125 21.375 -13.796875 C 21.375 -16.816406 20.992188 -19.300781 20.234375 -21.25 C 19.484375 -23.207031 18.191406 -24.1875 16.359375 -24.1875 Z M 16.359375 -24.1875 "/></g></g></g><g fill="#ffffff" fill-opacity="1"><g transform="translate(283.790591, 311.789565)"><g><path d="M 5.328125 -3.890625 L 5.328125 -19.703125 L 2.0625 -22.015625 L 2.0625 -25.03125 L 11.03125 -27.6875 L 12.8125 -27.25 L 12.8125 -23.640625 C 13.863281 -24.796875 15.207031 -25.757812 16.84375 -26.53125 C 18.488281 -27.300781 20.066406 -27.703125 21.578125 -27.734375 C 25.816406 -27.960938 28.539062 -26.695312 29.75 -23.9375 C 31 -25.15625 32.382812 -26.082031 33.90625 -26.71875 C 35.4375 -27.363281 37.023438 -27.6875 38.671875 -27.6875 C 41.828125 -27.6875 44.117188 -26.691406 45.546875 -24.703125 C 46.972656 -22.710938 47.6875 -19.878906 47.6875 -16.203125 L 47.6875 -3.9375 L 51.046875 -3.25 L 51.046875 0 L 36.359375 0 L 36.359375 -3.25 L 39.171875 -3.9375 L 39.171875 -15.125 C 39.171875 -16.96875 39.046875 -18.378906 38.796875 -19.359375 C 38.546875 -20.347656 38.066406 -21.070312 37.359375 -21.53125 C 36.660156 -21.988281 35.601562 -22.21875 34.1875 -22.21875 C 33.664062 -22.21875 33.082031 -22.101562 32.4375 -21.875 C 31.800781 -21.644531 31.21875 -21.347656 30.6875 -20.984375 C 30.851562 -20.097656 30.9375 -18.753906 30.9375 -16.953125 L 30.9375 -3.9375 L 34.34375 -3.25 L 34.34375 0 L 19.015625 0 L 19.015625 -3.25 L 22.421875 -3.984375 L 22.421875 -15.328125 C 22.421875 -17.722656 22.109375 -19.46875 21.484375 -20.5625 C 20.859375 -21.664062 19.707031 -22.21875 18.03125 -22.21875 C 17.175781 -22.21875 16.351562 -22.101562 15.5625 -21.875 C 14.78125 -21.644531 14.207031 -21.347656 13.84375 -20.984375 L 13.84375 -3.9375 L 17 -3.25 L 17 0 L 2.359375 0 L 2.359375 -3.25 Z M 5.328125 -3.890625 "/></g></g></g><g fill="#ffffff" fill-opacity="1"><g transform="translate(340.297728, 311.789565)"><g><path d="M 16.5 -27.6875 C 20.144531 -27.6875 22.925781 -26.773438 24.84375 -24.953125 C 26.769531 -23.128906 27.734375 -20.476562 27.734375 -17 C 27.734375 -15.550781 27.617188 -14.140625 27.390625 -12.765625 L 10.640625 -12.765625 C 10.867188 -9.898438 11.609375 -7.742188 12.859375 -6.296875 C 14.109375 -4.859375 15.914062 -4.140625 18.28125 -4.140625 C 20.90625 -4.140625 23.445312 -4.679688 25.90625 -5.765625 L 27.1875 -2.765625 C 25.90625 -1.679688 24.1875 -0.832031 22.03125 -0.21875 C 19.882812 0.382812 17.828125 0.6875 15.859375 0.6875 C 11.359375 0.6875 7.882812 -0.484375 5.4375 -2.828125 C 3 -5.179688 1.78125 -8.492188 1.78125 -12.765625 C 1.78125 -15.648438 2.398438 -18.222656 3.640625 -20.484375 C 4.890625 -22.753906 6.628906 -24.519531 8.859375 -25.78125 C 11.097656 -27.050781 13.644531 -27.6875 16.5 -27.6875 Z M 15.765625 -24.34375 C 12.773438 -24.34375 11.066406 -21.765625 10.640625 -16.609375 L 19.453125 -16.609375 C 19.585938 -17.785156 19.65625 -18.785156 19.65625 -19.609375 C 19.65625 -22.765625 18.359375 -24.34375 15.765625 -24.34375 Z M 15.765625 -24.34375 "/></g></g></g></svg>